HIERARCHY
ROOT hip
{
	OFFSET 0.000000 0.000000 0.000000 
	CHANNELS 6 Xposition Yposition Zposition Xrotation Zrotation Yrotation
	JOINT abdomen
	{
		OFFSET 0.000000 3.402643 0.000000 
		CHANNELS 3 Xrotation Zrotation Yrotation
		JOINT chest
		{
			OFFSET 0.000000 8.438565 -0.680529 
			CHANNELS 3 Xrotation Zrotation Yrotation
			JOINT neck
			{
				OFFSET 0.000000 10.207942 -0.272212 
				CHANNELS 3 Xrotation Zrotation Yrotation
				JOINT head
				{
					OFFSET 0.000000 3.130431 0.000000 
					CHANNELS 3 Xrotation Zrotation Yrotation
					End Site
					{
						OFFSET 0.000000 3.130435 0.000000 
					}
				}
			}
			JOINT lCollar
			{
				OFFSET 3.470700 6.669187 -0.816635 
				CHANNELS 3 Yrotation Zrotation Xrotation
				JOINT lShldr
				{
					OFFSET 3.198488 0.000000 0.000000 
					CHANNELS 3 Zrotation Yrotation Xrotation
					JOINT lForeArm
					{
						OFFSET 10.139888 0.000000 0.000000 
						CHANNELS 3 Yrotation Zrotation Xrotation
						JOINT lHand
						{
							OFFSET 8.370511 0.000000 0.000000 
							CHANNELS 3 Zrotation Yrotation Xrotation
							End Site
							{
								OFFSET 4.083176 0.000000 0.000000 
							}
						}
					}
				}
			}
			JOINT rCollar
			{
				OFFSET -3.470700 6.669187 -0.816635 
				CHANNELS 3 Yrotation Zrotation Xrotation
				JOINT rShldr
				{
					OFFSET -3.198488 0.000000 0.000000 
					CHANNELS 3 Zrotation Yrotation Xrotation
					JOINT rForeArm
					{
						OFFSET -10.139888 0.000000 0.000000 
						CHANNELS 3 Yrotation Zrotation Xrotation
						JOINT rHand
						{
							OFFSET -8.370511 0.000000 0.000000 
							CHANNELS 3 Zrotation Yrotation Xrotation
							End Site
							{
								OFFSET -4.083176 0.000000 0.000000 
							}
						}
					}
				}
			}
		}
	}
	JOINT lThigh
	{
		OFFSET 5.308129 -1.633274 1.361059 
		CHANNELS 3 Xrotation Zrotation Yrotation
		JOINT lShin
		{
			OFFSET -2.041588 -20.007561 0.000000 
			CHANNELS 3 Xrotation Zrotation Yrotation
			JOINT lFoot
			{
				OFFSET 0.000000 -19.190928 -1.224953 
				CHANNELS 3 Xrotation Yrotation Zrotation
				End Site
				{
					OFFSET 0.000000 -2.449906 4.627600 
				}
			}
		}
	}
	JOINT rThigh
	{
		OFFSET -5.308129 -1.633274 1.361059 
		CHANNELS 3 Xrotation Zrotation Yrotation
		JOINT rShin
		{
			OFFSET 2.041588 -20.007561 0.000000 
			CHANNELS 3 Xrotation Zrotation Yrotation
			JOINT rFoot
			{
				OFFSET 0.000000 -19.190928 -1.224953 
				CHANNELS 3 Xrotation Yrotation Zrotation
				End Site
				{
					OFFSET 0.000000 -2.449906 4.627600 
				}
			}
		}
	}
}
MOTION
Frames: 18
Frame Time: 0.016667
0.129195 43.490238 2.213095 4.943580 6.460460 1.173690 -19.011900 2.011730 -4.089730 19.391500 4.110480 -1.704410 23.512688 -5.284043 -15.556864 14.680600 7.196600 -5.520530 2.000000 -2.000000 0.000000 -92.365601 -4.508430 160.546997 28.848000 -0.334599 0.066023 0.048449 -0.034780 -149.440994 -2.000000 2.000000 0.000000 79.419899 -0.611947 166.209000 -26.094000 0.337629 0.060137 -0.055452 -0.008598 -130.350006 1.654220 -9.811167 7.954782 19.640825 3.067927 1.486761 -4.992663 23.633972 3.151029 -19.844816 0.570281 21.499432 22.304682 -2.638529 -1.796991 -8.900328 -24.849457 -4.923039 
-0.471217 43.538578 3.204863 4.719860 6.705910 -0.569878 -19.149599 2.037850 -4.076180 19.352600 3.963970 -1.684610 23.692085 -5.255189 -15.416256 14.712200 7.272610 -5.482960 2.000000 -2.000000 0.000000 -92.091301 -4.168820 159.570007 28.437799 -0.335068 0.065165 0.048807 -0.036354 -150.016998 -2.000000 2.000000 0.000000 79.293198 -0.085556 166.621002 -26.894800 0.336777 0.061847 -0.055665 -0.010363 -129.714996 0.515478 -8.949324 10.055787 24.017063 3.040415 1.809319 -1.702010 22.947384 2.131003 -19.040312 1.172208 21.078661 22.645298 -2.604390 -1.853646 -8.952579 -22.978828 -4.511176 
-1.131999 43.543095 4.209514 4.310910 7.147900 -2.928700 -19.269800 2.016590 -3.910920 19.333000 4.003000 -1.608670 24.120817 -5.648862 -14.823179 14.844200 7.048430 -5.351260 2.000000 -2.000000 0.000000 -91.679604 -3.918890 157.781006 27.373301 -0.336256 0.062920 0.048782 -0.036247 -149.977997 -2.000000 2.000000 0.000000 79.401398 0.311354 168.115997 -28.291300 0.335234 0.064800 -0.055214 -0.006396 -131.141006 -0.819277 -8.045256 12.410327 28.860445 2.909580 2.117294 1.666916 22.419987 1.260280 -18.294207 1.682161 20.797636 23.353989 -2.605433 -1.881500 -9.289929 -20.474094 -4.016063 
-1.761811 43.513828 5.176241 3.799140 7.152380 -5.150110 -19.415300 1.900940 -3.858320 19.176901 3.612240 -1.600440 24.271416 -5.612998 -14.494650 14.874400 7.076450 -5.244530 2.000000 -2.000000 0.000000 -91.238800 -3.482340 156.462006 25.537399 -0.338208 0.058998 0.047143 -0.028265 -147.067993 -2.000000 2.000000 0.000000 79.626404 0.543536 169.054001 -29.931999 0.333329 0.068220 -0.055067 -0.004871 -131.686996 -2.695084 -6.505694 13.942448 34.676521 2.746765 2.513275 5.630298 22.417866 0.162082 -17.363482 2.275193 19.364527 23.712124 -2.579542 -1.919621 -9.134301 -17.376854 -3.223654 
-2.404037 43.425655 6.087910 3.195350 6.649890 -7.685330 -19.416100 1.890410 -3.802870 19.050501 3.143450 -1.576630 23.820807 -5.589958 -14.347091 14.658500 7.101120 -5.238130 2.000000 -2.000000 0.000000 -90.767601 -3.331520 153.951996 23.994400 -0.339750 0.055656 0.046399 -0.023732 -145.427994 -2.000000 2.000000 0.000000 79.871201 1.077270 170.490997 -31.611700 0.331279 0.071664 -0.054756 -0.010711 -133.093994 -4.830392 -4.362067 15.028653 41.163395 2.469526 2.893712 10.154365 22.814453 -1.194893 -16.254404 3.321431 17.928558 23.978947 -2.577708 -1.953689 -9.051275 -14.119766 -2.417257 
-3.004114 43.336586 6.949859 2.525270 6.351300 -10.403600 -19.486200 1.862380 -3.682990 18.777100 2.869710 -1.524560 23.429541 -6.078162 -13.738095 14.425200 6.818610 -5.182920 2.000000 -2.000000 0.000000 -90.608498 -3.141660 151.382996 22.539301 -0.341121 0.052466 0.045745 -0.018853 -143.669998 -2.000000 2.000000 0.000000 79.930000 1.661870 171.059006 -32.890999 0.329650 0.074246 -0.054740 -0.010466 -133.182007 -6.953974 -2.949188 14.856262 47.072590 2.169115 3.235659 14.806407 23.070694 -2.674730 -15.151753 4.144972 17.475597 24.547886 -2.593104 -1.976516 -9.860560 -11.353596 -1.883977 
-3.588645 43.223660 7.770760 1.737740 5.905510 -13.834800 -19.385500 1.898780 -3.307230 18.650299 2.645020 -1.347680 23.777414 -5.954623 -13.390170 14.572200 6.795890 -4.983540 2.000000 -2.000000 0.000000 -90.293602 -3.116450 149.410995 21.132999 -0.342369 0.049352 0.045425 -0.015917 -142.615005 -2.000000 2.000000 0.000000 80.018303 2.538870 171.871002 -33.848000 0.328394 0.076153 -0.054700 -0.009838 -133.406006 -8.823005 -1.857207 14.205597 51.956306 1.867821 3.503808 14.603860 21.384556 -2.232972 -13.906536 5.154664 17.635874 25.035713 -2.626518 -1.985045 -10.499769 -8.252717 -1.102411 
-4.095571 43.106098 8.564542 1.244860 4.940250 -17.704800 -19.374500 2.098200 -2.941650 18.416300 2.254290 -1.148620 24.435789 -5.864701 -13.336679 14.908100 6.854890 -4.902160 2.000000 -2.000000 0.000000 -90.408600 -2.729440 147.632004 20.332300 -0.343046 0.047565 0.045135 -0.012676 -141.453003 -2.000000 2.000000 0.000000 -100.050003 176.632996 -7.374800 -34.541401 0.327464 0.077521 -0.054772 -0.010957 -133.005997 -10.708737 -0.730093 13.141332 55.480423 1.659237 3.669109 11.680576 17.382874 -0.704308 -12.706612 6.531818 18.178074 25.437763 -2.641782 -2.010859 -11.125040 -5.238362 -0.295098 
-4.597925 42.988796 9.355436 0.931032 4.823590 -22.255100 -19.341801 2.117980 -2.388140 18.631500 2.117950 -0.871906 24.685789 -6.066463 -13.084392 15.003300 6.727810 -4.846160 2.000000 -2.000000 0.000000 -90.602097 -2.204800 146.283005 19.931900 -0.343375 0.046668 0.045019 -0.011122 -140.895996 -2.000000 2.000000 0.000000 -99.873596 175.472000 -6.961880 -34.883202 0.327000 0.078192 -0.054690 -0.009674 -133.464996 -12.716879 -0.750865 12.107177 57.150818 1.515571 3.755630 8.809512 15.497044 0.191294 -12.152637 7.111372 19.407095 26.321465 -2.659597 -2.059158 -11.670800 -2.097736 0.676827 
-5.036618 42.878059 10.133760 0.166608 4.833960 -26.870001 -19.197399 1.847210 -1.552440 18.700399 1.620240 -0.501700 24.766506 -5.985877 -13.105103 15.001900 6.670290 -4.818180 2.000000 -2.000000 0.000000 -90.348900 -1.490760 146.858002 20.136900 -0.343207 0.047127 0.045328 -0.014910 -142.253998 -2.000000 2.000000 0.000000 -99.219200 174.563004 -7.076900 -35.039398 0.326786 0.078497 -0.054615 -0.008336 -133.942993 -14.244854 -1.463825 10.672696 57.575558 1.437142 3.797508 6.383846 14.374435 0.751281 -11.365194 7.238279 20.436369 27.486364 -2.711130 -2.110532 -12.297475 1.007591 1.665818 
-5.457031 42.773907 10.902682 -0.362451 4.511630 -31.366301 -19.138500 1.645860 -1.004850 18.603100 1.132150 -0.263215 24.493158 -6.291459 -12.830533 14.878400 6.442990 -4.808420 2.000000 -2.000000 0.000000 -90.349800 -0.600561 147.617996 20.635000 -0.342793 0.048241 0.045475 -0.016407 -142.791000 -2.000000 2.000000 0.000000 -99.140701 174.076996 -6.118720 -35.439800 0.326235 0.079278 -0.054662 -0.009210 -133.630997 -15.990815 -1.952051 8.594723 57.390724 1.422451 3.805592 3.324110 13.868600 1.272634 -10.641413 7.594659 21.359760 28.504498 -2.757776 -2.163996 -12.819271 3.794194 2.624684 
-5.889287 42.672710 11.598179 -0.930325 4.276780 -36.104401 -19.050501 1.590640 -0.734866 18.456499 1.239400 -0.152857 23.888731 -5.824844 -12.202535 14.587000 6.593820 -4.502140 2.000000 -2.000000 0.000000 -90.594200 0.141979 147.792999 21.084200 -0.342411 0.049243 0.045676 -0.018256 -143.455002 -2.000000 2.000000 0.000000 -99.433098 173.427002 -4.260580 -35.781601 0.325760 0.079941 -0.054497 -0.005632 -134.910004 -17.590853 -2.526725 6.357402 55.970154 1.469501 3.760910 0.524404 14.039849 1.783900 -10.025199 7.736207 22.513889 29.796673 -2.804788 -2.205005 -13.035000 6.821278 3.652235 
-6.268867 42.651188 12.323322 -2.292750 4.664250 -41.562901 -18.861601 1.246130 -0.012981 18.222000 1.356300 0.120506 23.545748 -5.260049 -11.880827 14.444400 6.798930 -4.266140 2.000000 -2.000000 0.000000 -90.477501 0.572436 148.173004 21.142799 -0.342361 0.049373 0.045960 -0.020590 -144.294998 -2.000000 2.000000 0.000000 -99.374100 172.716995 -3.077140 -35.820702 0.325706 0.080017 -0.054485 -0.005276 -135.037003 -18.438202 -4.188087 4.743866 53.193092 1.617464 3.621176 -2.017050 15.328672 2.331431 -9.348335 6.598356 24.055477 31.233936 -2.873754 -2.250152 -13.491815 10.224015 4.789820 
-6.658523 42.646545 13.055430 -2.084420 3.698730 -46.911598 -18.684200 1.391700 0.570098 18.153999 0.878134 0.431911 23.568453 -4.327671 -11.839076 14.524700 7.258190 -3.996310 2.000000 -2.000000 0.000000 -90.602798 0.491756 146.903000 21.142799 -0.342361 0.049373 0.045704 -0.018500 -143.542999 -2.000000 2.000000 0.000000 -99.129601 171.888000 -2.684410 -35.293301 0.326437 0.078993 -0.054562 -0.007244 -134.334000 -19.581022 -3.491595 2.614785 50.033920 1.774378 3.485121 -3.941536 16.331726 2.888427 -8.421058 7.109920 25.230207 30.992153 -2.932831 -2.229943 -13.046537 13.769321 5.799731 
-7.036497 42.716545 13.813151 -1.212810 3.182880 -52.176601 -18.731400 1.399700 0.813741 18.125000 0.302462 0.563328 23.395267 -4.172037 -10.965993 14.423300 7.145410 -3.620710 2.000000 -2.000000 0.000000 -90.581497 0.655136 145.574997 21.123301 -0.342378 0.049330 0.045491 -0.016570 -142.850006 -2.000000 2.000000 0.000000 -98.611702 171.139008 -1.305560 -34.746498 0.327186 0.077924 -0.054526 -0.006397 -134.636993 -21.031826 -2.683508 -0.111761 45.839569 2.001482 3.244699 -5.035698 17.191059 3.329824 -8.000924 7.476191 26.643440 30.055120 -2.958966 -2.171335 -11.916836 16.226414 6.293303 
-7.396978 42.827789 14.559640 -1.584780 3.377620 -57.388199 -18.493401 1.161580 1.124380 18.193300 0.292720 0.671513 22.966898 -4.125066 -10.043666 14.262600 7.014740 -3.263870 2.000000 -2.000000 0.000000 -90.385803 0.429990 145.302002 20.927999 -0.342545 0.048895 0.045537 -0.017005 -143.005997 -2.000000 2.000000 0.000000 -98.318298 170.302002 -0.326883 -34.355801 0.327715 0.077156 -0.054569 -0.007408 -134.274994 -21.480776 -2.912841 -2.246627 40.153034 2.225220 2.944965 -5.528127 16.681993 3.516371 -7.599203 6.339582 27.556768 29.650646 -3.052532 -2.112396 -11.110440 19.759295 6.900764 
-7.833367 42.969189 15.312417 -0.998275 3.788490 -61.940800 -18.590500 1.201320 1.202450 18.310499 0.331776 0.719409 22.818768 -3.998324 -9.242120 14.223000 7.006070 -2.928560 2.000000 -2.000000 0.000000 -90.191101 0.538218 145.712006 21.054899 -0.342437 0.049178 0.045787 -0.019206 -143.796997 -2.000000 2.000000 0.000000 -98.152199 170.029007 0.064429 -34.072601 0.328095 0.076597 -0.054653 -0.009046 -133.688995 -22.091715 -2.295047 -5.425220 33.323334 2.402777 2.545346 -4.854798 16.131796 3.485879 -7.703681 5.799782 28.238674 28.673052 -3.084943 -2.064213 -9.544710 22.448078 7.013004 
-8.322264 43.083542 16.131926 -0.626057 3.329880 -66.178902 -18.673901 1.055060 1.590700 17.871099 -0.292647 0.892633 22.568069 -3.887817 -9.023125 14.033200 6.885480 -2.827800 2.000000 -2.000000 0.000000 -89.235100 0.901093 146.492004 20.937700 -0.342537 0.048917 0.045645 -0.017984 -143.356995 -2.000000 2.000000 0.000000 -97.576302 170.692993 -0.064196 -34.238602 0.327872 0.076925 -0.054639 -0.008801 -133.776993 -21.309980 -1.296835 -9.938622 26.567936 2.563558 2.092677 -3.551936 14.239252 3.085951 -6.606091 5.333919 28.829866 27.379908 -3.185232 -1.956057 -7.615306 24.775606 6.759081 
